<mxfile host="app.diagrams.net" modified="2021-03-23T09:50:58.959Z" agent="5.0 (Macintosh; Intel Mac OS X 10_15_6) AppleWebKit/605.1.15 (KHTML, like Gecko) Version/14.0.3 Safari/605.1.15" etag="XSusH44bYgv5qvi6yJBi" version="14.4.9" type="github">
  <diagram id="C5RBs43oDa-KdzZeNtuy" name="Page-1">
    <mxGraphModel dx="946" dy="645" grid="1" gridSize="10" guides="1" tooltips="1" connect="1" arrows="1" fold="1" page="1" pageScale="1" pageWidth="827" pageHeight="1169" math="0" shadow="0">
      <root>
        <mxCell id="WIyWlLk6GJQsqaUBKTNV-0" />
        <mxCell id="WIyWlLk6GJQsqaUBKTNV-1" parent="WIyWlLk6GJQsqaUBKTNV-0" />
        <mxCell id="q58C368YSlQAS4IYxPb3-1" value="Formulae" style="swimlane;fontStyle=1;align=center;verticalAlign=top;childLayout=stackLayout;horizontal=1;startSize=26;horizontalStack=0;resizeParent=1;resizeParentMax=0;resizeLast=0;collapsible=1;marginBottom=0;" vertex="1" parent="WIyWlLk6GJQsqaUBKTNV-1">
          <mxGeometry x="920" y="80" width="310" height="100" as="geometry" />
        </mxCell>
        <mxCell id="q58C368YSlQAS4IYxPb3-2" value="+ periodError: String" style="text;strokeColor=none;fillColor=none;align=left;verticalAlign=top;spacingLeft=4;spacingRight=4;overflow=hidden;rotatable=0;points=[[0,0.5],[1,0.5]];portConstraint=eastwest;" vertex="1" parent="q58C368YSlQAS4IYxPb3-1">
          <mxGeometry y="26" width="310" height="26" as="geometry" />
        </mxCell>
        <mxCell id="q58C368YSlQAS4IYxPb3-3" value="" style="line;strokeWidth=1;fillColor=none;align=left;verticalAlign=middle;spacingTop=-1;spacingLeft=3;spacingRight=3;rotatable=0;labelPosition=right;points=[];portConstraint=eastwest;" vertex="1" parent="q58C368YSlQAS4IYxPb3-1">
          <mxGeometry y="52" width="310" height="8" as="geometry" />
        </mxCell>
        <mxCell id="q58C368YSlQAS4IYxPb3-4" value="+ compute(stocks: List&lt;Stock&gt;, period: int, startDate: int): &#xa;List&lt;Point&gt;" style="text;strokeColor=none;fillColor=none;align=left;verticalAlign=top;spacingLeft=4;spacingRight=4;overflow=hidden;rotatable=0;points=[[0,0.5],[1,0.5]];portConstraint=eastwest;" vertex="1" parent="q58C368YSlQAS4IYxPb3-1">
          <mxGeometry y="60" width="310" height="40" as="geometry" />
        </mxCell>
        <mxCell id="q58C368YSlQAS4IYxPb3-9" value="EMA" style="swimlane;fontStyle=1;align=center;verticalAlign=top;childLayout=stackLayout;horizontal=1;startSize=26;horizontalStack=0;resizeParent=1;resizeParentMax=0;resizeLast=0;collapsible=1;marginBottom=0;" vertex="1" parent="WIyWlLk6GJQsqaUBKTNV-1">
          <mxGeometry x="1005" y="210" width="140" height="60" as="geometry" />
        </mxCell>
        <mxCell id="q58C368YSlQAS4IYxPb3-10" value="" style="line;strokeWidth=1;fillColor=none;align=left;verticalAlign=middle;spacingTop=-1;spacingLeft=3;spacingRight=3;rotatable=0;labelPosition=right;points=[];portConstraint=eastwest;" vertex="1" parent="q58C368YSlQAS4IYxPb3-9">
          <mxGeometry y="26" width="140" height="8" as="geometry" />
        </mxCell>
        <mxCell id="q58C368YSlQAS4IYxPb3-11" value="+ compute(): List&lt;Point&gt;" style="text;strokeColor=none;fillColor=none;align=left;verticalAlign=top;spacingLeft=4;spacingRight=4;overflow=hidden;rotatable=0;points=[[0,0.5],[1,0.5]];portConstraint=eastwest;" vertex="1" parent="q58C368YSlQAS4IYxPb3-9">
          <mxGeometry y="34" width="140" height="26" as="geometry" />
        </mxCell>
        <mxCell id="q58C368YSlQAS4IYxPb3-12" value="SMA" style="swimlane;fontStyle=1;align=center;verticalAlign=top;childLayout=stackLayout;horizontal=1;startSize=26;horizontalStack=0;resizeParent=1;resizeParentMax=0;resizeLast=0;collapsible=1;marginBottom=0;" vertex="1" parent="WIyWlLk6GJQsqaUBKTNV-1">
          <mxGeometry x="750" y="210" width="140" height="60" as="geometry" />
        </mxCell>
        <mxCell id="q58C368YSlQAS4IYxPb3-13" value="" style="line;strokeWidth=1;fillColor=none;align=left;verticalAlign=middle;spacingTop=-1;spacingLeft=3;spacingRight=3;rotatable=0;labelPosition=right;points=[];portConstraint=eastwest;" vertex="1" parent="q58C368YSlQAS4IYxPb3-12">
          <mxGeometry y="26" width="140" height="8" as="geometry" />
        </mxCell>
        <mxCell id="q58C368YSlQAS4IYxPb3-14" value="+ compute(): List&lt;Point&gt;" style="text;strokeColor=none;fillColor=none;align=left;verticalAlign=top;spacingLeft=4;spacingRight=4;overflow=hidden;rotatable=0;points=[[0,0.5],[1,0.5]];portConstraint=eastwest;" vertex="1" parent="q58C368YSlQAS4IYxPb3-12">
          <mxGeometry y="34" width="140" height="26" as="geometry" />
        </mxCell>
        <mxCell id="q58C368YSlQAS4IYxPb3-15" value="PriceData" style="swimlane;fontStyle=1;align=center;verticalAlign=top;childLayout=stackLayout;horizontal=1;startSize=26;horizontalStack=0;resizeParent=1;resizeParentMax=0;resizeLast=0;collapsible=1;marginBottom=0;" vertex="1" parent="WIyWlLk6GJQsqaUBKTNV-1">
          <mxGeometry x="750" y="100" width="140" height="60" as="geometry" />
        </mxCell>
        <mxCell id="q58C368YSlQAS4IYxPb3-16" value="" style="line;strokeWidth=1;fillColor=none;align=left;verticalAlign=middle;spacingTop=-1;spacingLeft=3;spacingRight=3;rotatable=0;labelPosition=right;points=[];portConstraint=eastwest;" vertex="1" parent="q58C368YSlQAS4IYxPb3-15">
          <mxGeometry y="26" width="140" height="8" as="geometry" />
        </mxCell>
        <mxCell id="q58C368YSlQAS4IYxPb3-17" value="+ compute(): List&lt;Point&gt;" style="text;strokeColor=none;fillColor=none;align=left;verticalAlign=top;spacingLeft=4;spacingRight=4;overflow=hidden;rotatable=0;points=[[0,0.5],[1,0.5]];portConstraint=eastwest;" vertex="1" parent="q58C368YSlQAS4IYxPb3-15">
          <mxGeometry y="34" width="140" height="26" as="geometry" />
        </mxCell>
        <mxCell id="q58C368YSlQAS4IYxPb3-18" value="MACD" style="swimlane;fontStyle=1;align=center;verticalAlign=top;childLayout=stackLayout;horizontal=1;startSize=26;horizontalStack=0;resizeParent=1;resizeParentMax=0;resizeLast=0;collapsible=1;marginBottom=0;" vertex="1" parent="WIyWlLk6GJQsqaUBKTNV-1">
          <mxGeometry x="1260" y="210" width="140" height="60" as="geometry" />
        </mxCell>
        <mxCell id="q58C368YSlQAS4IYxPb3-19" value="" style="line;strokeWidth=1;fillColor=none;align=left;verticalAlign=middle;spacingTop=-1;spacingLeft=3;spacingRight=3;rotatable=0;labelPosition=right;points=[];portConstraint=eastwest;" vertex="1" parent="q58C368YSlQAS4IYxPb3-18">
          <mxGeometry y="26" width="140" height="8" as="geometry" />
        </mxCell>
        <mxCell id="q58C368YSlQAS4IYxPb3-20" value="+ compute(): List&lt;Point&gt;" style="text;strokeColor=none;fillColor=none;align=left;verticalAlign=top;spacingLeft=4;spacingRight=4;overflow=hidden;rotatable=0;points=[[0,0.5],[1,0.5]];portConstraint=eastwest;" vertex="1" parent="q58C368YSlQAS4IYxPb3-18">
          <mxGeometry y="34" width="140" height="26" as="geometry" />
        </mxCell>
        <mxCell id="q58C368YSlQAS4IYxPb3-21" value="MACDAVG" style="swimlane;fontStyle=1;align=center;verticalAlign=top;childLayout=stackLayout;horizontal=1;startSize=26;horizontalStack=0;resizeParent=1;resizeParentMax=0;resizeLast=0;collapsible=1;marginBottom=0;" vertex="1" parent="WIyWlLk6GJQsqaUBKTNV-1">
          <mxGeometry x="1260" y="100" width="140" height="60" as="geometry" />
        </mxCell>
        <mxCell id="q58C368YSlQAS4IYxPb3-22" value="" style="line;strokeWidth=1;fillColor=none;align=left;verticalAlign=middle;spacingTop=-1;spacingLeft=3;spacingRight=3;rotatable=0;labelPosition=right;points=[];portConstraint=eastwest;" vertex="1" parent="q58C368YSlQAS4IYxPb3-21">
          <mxGeometry y="26" width="140" height="8" as="geometry" />
        </mxCell>
        <mxCell id="q58C368YSlQAS4IYxPb3-23" value="+ compute(): List&lt;Point&gt;" style="text;strokeColor=none;fillColor=none;align=left;verticalAlign=top;spacingLeft=4;spacingRight=4;overflow=hidden;rotatable=0;points=[[0,0.5],[1,0.5]];portConstraint=eastwest;" vertex="1" parent="q58C368YSlQAS4IYxPb3-21">
          <mxGeometry y="34" width="140" height="26" as="geometry" />
        </mxCell>
      </root>
    </mxGraphModel>
  </diagram>
</mxfile>
